<svg width="31" height="31" viewBox="0 0 31 31" fill="none" xmlns="http://www.w3.org/2000/svg">
<path d="M30 15.5C30 23.5081 23.5081 30 15.5 30C7.49187 30 1 23.5081 1 15.5C1 7.49187 7.49187 1 15.5 1C23.5081 1 30 7.49187 30 15.5Z" fill="#E2F3FB"/>
<path fill-rule="evenodd" clip-rule="evenodd" d="M15.5 2C8.04416 2 2 8.04416 2 15.5C2 22.9558 8.04416 29 15.5 29C22.9558 29 29 22.9558 29 15.5C29 8.04416 22.9558 2 15.5 2ZM0 15.5C0 6.93959 6.93959 0 15.5 0C24.0604 0 31 6.93959 31 15.5C31 24.0604 24.0604 31 15.5 31C6.93959 31 0 24.0604 0 15.5Z" fill="#009AE2"/>
<path d="M18.0752 23.1719H14.988V11.5374C13.8601 12.592 12.5308 13.3721 11 13.8774V11.0759C11.8057 10.8123 12.6809 10.3142 13.6257 9.58179C14.5706 8.84204 15.2188 7.98145 15.5703 7H18.0752V23.1719Z" fill="#009AE2"/>
</svg>
