<svg width="31" height="31" viewBox="0 0 31 31" fill="none" xmlns="http://www.w3.org/2000/svg">
<path d="M30 15.5C30 23.5081 23.5081 30 15.5 30C7.49187 30 1 23.5081 1 15.5C1 7.49187 7.49187 1 15.5 1C23.5081 1 30 7.49187 30 15.5Z" fill="#E2F3FB"/>
<path fill-rule="evenodd" clip-rule="evenodd" d="M15.5 2C8.04416 2 2 8.04416 2 15.5C2 22.9558 8.04416 29 15.5 29C22.9558 29 29 22.9558 29 15.5C29 8.04416 22.9558 2 15.5 2ZM0 15.5C0 6.93959 6.93959 0 15.5 0C24.0604 0 31 6.93959 31 15.5C31 24.0604 24.0604 31 15.5 31C6.93959 31 0 24.0604 0 15.5Z" fill="#009AE2"/>
<path d="M20.8215 20.3044V23.1719H10C10.1172 22.0879 10.4688 21.0625 11.0547 20.0957C11.6406 19.1216 12.7979 17.8325 14.5264 16.2285C15.918 14.9321 16.7712 14.0532 17.0862 13.5918C17.511 12.9546 17.7234 12.3247 17.7234 11.7021C17.7234 11.0137 17.5366 10.4863 17.1631 10.1201C16.7969 9.74658 16.2878 9.55981 15.636 9.55981C14.9915 9.55981 14.4788 9.75391 14.0979 10.1421C13.717 10.5303 13.4973 11.1748 13.4387 12.0757L10.3625 11.7681C10.5457 10.0688 11.1206 8.84937 12.0874 8.10962C13.0542 7.36987 14.2627 7 15.7129 7C17.3022 7 18.551 7.42847 19.4592 8.2854C20.3674 9.14233 20.8215 10.208 20.8215 11.4824C20.8215 12.2075 20.6897 12.8997 20.426 13.5588C20.1697 14.2107 19.7595 14.8955 19.1956 15.6133C18.822 16.0894 18.1482 16.7742 17.1741 17.6677C16.2 18.5613 15.5811 19.1545 15.3174 19.4475C15.061 19.7405 14.8523 20.0261 14.6912 20.3044H20.8215Z" fill="#009AE2"/>
</svg>
