<svg width="31" height="31" viewBox="0 0 31 31" fill="none" xmlns="http://www.w3.org/2000/svg">
<path d="M30 15.5C30 23.5081 23.5081 30 15.5 30C7.49187 30 1 23.5081 1 15.5C1 7.49187 7.49187 1 15.5 1C23.5081 1 30 7.49187 30 15.5Z" fill="#E2F3FB"/>
<path fill-rule="evenodd" clip-rule="evenodd" d="M15.5 2C8.04416 2 2 8.04416 2 15.5C2 22.9558 8.04416 29 15.5 29C22.9558 29 29 22.9558 29 15.5C29 8.04416 22.9558 2 15.5 2ZM0 15.5C0 6.93959 6.93959 0 15.5 0C24.0604 0 31 6.93959 31 15.5C31 24.0604 24.0604 31 15.5 31C6.93959 31 0 24.0604 0 15.5Z" fill="#009AE2"/>
<path d="M10 18.8982L12.9883 18.5356C13.0835 19.2974 13.3398 19.8796 13.7573 20.2825C14.1748 20.6853 14.6802 20.8867 15.2734 20.8867C15.9106 20.8867 16.4453 20.645 16.8774 20.1616C17.3169 19.6782 17.5366 19.0264 17.5366 18.2061C17.5366 17.4297 17.3279 16.8145 16.9104 16.3604C16.4929 15.9062 15.9839 15.6792 15.3833 15.6792C14.9878 15.6792 14.5154 15.7561 13.9661 15.9099L14.3066 13.394C15.1416 13.416 15.7788 13.2366 16.2183 12.8557C16.6577 12.4675 16.8774 11.9548 16.8774 11.3176C16.8774 10.7756 16.7163 10.3435 16.394 10.0212C16.0718 9.69897 15.6433 9.53784 15.1086 9.53784C14.5813 9.53784 14.1309 9.72095 13.7573 10.0872C13.3838 10.4534 13.1567 10.988 13.0762 11.6912L10.2307 11.2078C10.4285 10.2336 10.7251 9.45728 11.1206 8.87866C11.5234 8.29272 12.0801 7.83496 12.7905 7.50537C13.5083 7.16846 14.3103 7 15.1965 7C16.7126 7 17.9285 7.4834 18.844 8.4502C19.5984 9.24121 19.9756 10.1348 19.9756 11.1309C19.9756 12.5444 19.2029 13.6724 17.6575 14.5146C18.5803 14.7124 19.3164 15.1555 19.8657 15.844C20.4224 16.5325 20.7007 17.3638 20.7007 18.3379C20.7007 19.7515 20.1843 20.9563 19.1516 21.9524C18.1189 22.9485 16.8335 23.4465 15.2954 23.4465C13.8379 23.4465 12.6294 23.0291 11.6699 22.1941C10.7104 21.3518 10.1538 20.2532 10 18.8982Z" fill="#009AE2"/>
</svg>
