<svg width="526" height="244" viewBox="0 0 526 244" fill="none" xmlns="http://www.w3.org/2000/svg">
<path d="M509.294 178.669H523.954C525.14 178.669 526.077 179.667 525.995 180.85C525.586 186.743 524.808 195.869 524.084 197.68C523.056 200.249 523.056 197.68 522.542 202.304C522.028 206.928 523.056 222.856 513.807 222.343C504.559 221.829 511.752 205.387 512.266 202.304C512.579 200.426 510.924 199.024 509.437 198.236C508.691 197.84 508.126 197.126 508.081 196.283L507.245 180.835C507.181 179.659 508.116 178.669 509.294 178.669Z" fill="#00AFE1"/>
<path d="M485.087 179.697H499.94C501.075 179.697 501.991 180.613 502.017 181.749C502.15 187.814 502.723 197.39 501.99 199.221C500.962 201.79 497.879 200.249 497.366 204.873C496.852 209.497 497.894 224.398 488.631 224.398C478.355 224.398 487.603 207.442 487.089 201.79C486.93 200.043 485.983 199.736 484.899 199.531C484.049 199.369 483.477 198.646 483.455 197.782L483.035 181.806C483.004 180.65 483.93 179.697 485.087 179.697Z" fill="#00AFE1"/>
<path d="M460.455 179.214C465.317 179.311 472.197 179.6 475.591 179.744C476.725 179.792 477.633 180.746 477.651 181.88C477.741 187.946 478.247 197.527 477.502 199.353C476.456 201.915 473.164 200.324 472.189 204.873C470.648 212.066 473.73 224.912 463.968 224.912C452.664 224.912 463.454 210.525 461.913 202.304C461.606 200.663 461.098 200.074 460.337 199.707C459.568 199.336 458.985 198.659 458.956 197.806L458.39 181.323C458.35 180.156 459.287 179.19 460.455 179.214Z" fill="#00AFE1"/>
<path d="M437.135 175.664C441.857 175.952 447.91 176.951 451.126 177.409C452.255 177.57 453.173 178.567 453.194 179.708C453.308 185.95 453.924 196.367 453.178 198.194C452.132 200.756 450.042 197.755 449.068 202.304C447.526 209.497 446.497 222.856 436.734 222.857C431.076 222.857 432.839 215.1 435.004 210.524C436.218 207.956 438.792 205.387 438.792 201.79C438.792 200.003 438.002 198.94 436.99 198.286C436.272 197.822 435.69 197.115 435.664 196.26L435.071 177.723C435.033 176.556 435.971 175.593 437.135 175.664Z" fill="#00AFE1"/>
<path d="M417.586 171.029C422.002 171.341 426.739 172.64 429.35 173.234C430.338 173.458 431.199 174.269 431.287 175.279C431.773 180.789 431.319 189.676 430.569 191.514C429.522 194.076 425.38 193.131 424.405 197.68C422.864 204.873 421.878 220.288 412.116 220.288C406.458 220.289 409.395 211.504 411.56 206.928C412.774 204.36 414.643 200.763 414.643 197.166C414.643 195.5 413.956 194.005 413.043 193.038C412.332 192.286 411.717 191.268 411.926 190.253L415.56 172.613C415.758 171.652 416.607 170.96 417.586 171.029Z" fill="#00AFE1"/>
<path d="M397.136 166.448C401.573 166.751 406.349 168.061 408.973 168.658C409.962 168.882 410.826 169.696 410.83 170.709C410.854 176.127 408.198 184.541 407.449 186.376C406.403 188.938 400.717 186.966 399.742 191.515C398.201 198.709 394.6 210.524 384.838 210.525C379.18 210.525 383.856 202.246 386.892 198.195C388.433 196.138 389.975 194.598 391.01 191.515C391.293 190.667 391.919 187.81 391.771 185.95C391.687 184.884 391.21 183.524 391.471 182.487L395.13 167.95C395.361 167.031 396.191 166.384 397.136 166.448Z" fill="#00AFE1"/>
<path d="M376.839 161.353C380.888 161.645 385.218 162.819 387.67 163.382C388.657 163.609 389.521 164.426 389.517 165.441C389.501 170.502 387.054 178.25 386.361 179.951C385.384 182.343 380.614 179.048 379.704 183.296C378.265 190.012 373.678 200.249 364.563 200.25C359.28 200.25 361.721 193.828 364.557 190.046C365.995 188.126 369.124 185.828 370.455 183.296C371.116 182.039 371.674 180.652 371.758 179.607C371.845 178.541 371.213 177.235 371.474 176.199L374.833 162.851C375.064 161.933 375.894 161.285 376.839 161.353Z" fill="#00AFE1"/>
<path d="M358.423 155.452C361.817 156.064 365.328 157.369 367.43 158.078C368.391 158.401 369.168 159.307 369.055 160.315C368.547 164.805 365.779 171.315 365.026 172.747C363.953 174.788 361.351 171.379 360.178 175.074C358.323 180.918 350.294 189.214 342.196 188.433C337.502 187.981 342.072 182.45 344.766 180.21C346.802 178.518 349.208 176.491 350.608 174.356C351.393 173.157 352.678 171.025 353.149 169.521C353.455 168.542 353.203 167.146 353.493 166.162L356.249 156.847C356.53 155.897 357.449 155.276 358.423 155.452Z" fill="#00AFE1"/>
<path d="M339.4 149.395C342.605 149.981 345.908 151.202 347.921 151.883C348.88 152.208 349.658 153.116 349.54 154.123C349.033 158.436 346.397 164.631 345.678 165.999C344.648 167.96 342.146 164.684 341.02 168.236C339.238 173.849 331.525 181.82 323.745 181.07C319.235 180.635 323.626 175.321 326.213 173.169C328.169 171.544 330.481 169.597 331.826 167.545C332.568 166.411 333.778 164.407 334.246 162.967C334.564 161.991 334.327 160.589 334.618 159.606L337.227 150.788C337.508 149.838 338.426 149.218 339.4 149.395Z" fill="#00AFE1"/>
<path d="M318.847 142.202C322.051 142.788 325.355 144.009 327.367 144.69C328.328 145.015 329.106 145.923 328.987 146.93C328.48 151.243 325.844 157.437 325.125 158.805C324.095 160.767 321.594 157.491 320.468 161.042C318.686 166.656 313.445 174.282 305.665 173.532C301.156 173.097 303.073 168.128 305.661 165.976C307.617 164.35 309.929 162.404 311.273 160.352C312.016 159.217 313.224 157.213 313.693 155.774C314.01 154.798 313.775 153.396 314.066 152.412L316.674 143.594C316.956 142.645 317.874 142.024 318.847 142.202Z" fill="#00AFE1"/>
<path d="M298.318 136.865C301.272 137.161 304.359 138.012 306.286 138.497C307.269 138.745 308.109 139.593 308.013 140.603C307.608 144.877 304.734 151.661 304.174 152.979C303.366 154.877 301.868 151.653 301.091 155.034C299.863 160.378 295.524 166.443 288.246 166.338C284.029 166.276 284.976 161.339 287.214 159.146C288.906 157.489 291.28 155.864 292.869 154.224C293.901 153.16 294.291 151.641 294.207 150.485C294.129 149.412 293.604 148.068 293.89 147.031L296.294 138.307C296.545 137.4 297.38 136.771 298.318 136.865Z" fill="#00AFE1"/>
<path d="M281.144 133.798C284.033 133.619 287.358 133.94 289.398 134.092C290.409 134.168 291.38 134.866 291.45 135.878C291.73 139.921 290.179 146.578 289.874 147.879C289.431 149.77 284.072 147.16 283.11 150.282C282.596 151.951 281.054 155.035 274.373 159.144C270.989 161.225 268.54 158.973 270.265 156.577C271.568 154.767 277.271 152.061 278.482 150.282C278.726 149.925 278.918 149.639 279.063 149.411C279.628 148.52 278.539 147.555 278.614 146.503L279.392 135.607C279.461 134.648 280.184 133.858 281.144 133.798Z" fill="#00AFE1"/>
<path d="M265.579 131.931C268.464 131.753 271.783 132.074 273.818 132.226C274.829 132.302 275.801 133 275.87 134.012C276.15 138.055 274.6 144.711 274.295 146.012C273.851 147.904 271.034 145.533 268.724 147.843C267.697 148.87 266.156 150.925 260.503 155.549C257.428 158.063 254.671 155.376 256.394 152.982C257.697 151.171 261.344 150.132 262.556 148.354C262.911 147.832 263.193 147.42 263.395 147.093C263.945 146.2 263.12 144.993 263.186 143.946L263.826 133.755C263.887 132.789 264.613 131.991 265.579 131.931Z" fill="#00AFE1"/>
<path d="M249.246 132.561C251.805 132.199 254.743 132.223 256.61 132.206C257.624 132.197 258.65 132.817 258.794 133.821C259.329 137.544 258.44 143.68 258.262 144.89C258.002 146.67 255.216 144.703 253.266 147.016C252.399 148.045 253.02 149.808 248.167 154.519C245.527 157.082 242.771 154.819 244.174 152.473C245.233 150.7 247.705 149.576 248.683 147.841C249.231 146.869 249.299 145.892 249.098 145.152C248.825 144.145 247.905 143.101 247.874 142.059L247.654 134.535C247.625 133.563 248.283 132.698 249.246 132.561Z" fill="#00AFE1"/>
<path d="M233.468 135.248C235.834 134.704 238.564 134.476 240.333 134.304C241.343 134.206 242.421 134.736 242.647 135.725C243.455 139.245 243.133 145.11 243.067 146.273C242.969 147.997 241.614 145.465 239.948 147.841C239.207 148.898 240.087 149.164 235.851 154.078C233.547 156.751 230.676 155.084 232.236 152.978C232.616 152.465 233.38 151.651 234.166 149.909C234.591 148.967 234.59 148.058 234.359 147.376C234.024 146.388 233.015 145.416 232.891 144.381L232.057 137.354C231.942 136.387 232.519 135.467 233.468 135.248Z" fill="#00AFE1"/>
<path d="M218.993 137.303C221.359 136.759 224.089 136.532 225.858 136.359C226.868 136.261 227.946 136.792 228.172 137.78C228.98 141.3 228.658 147.165 228.592 148.329C228.494 150.052 227.139 147.52 225.473 149.896C224.732 150.953 225.612 151.219 221.376 156.133C219.072 158.806 216.201 157.139 217.761 155.033C218.141 154.52 218.905 153.706 219.691 151.964C220.116 151.022 220.115 150.114 219.884 149.431C219.55 148.443 218.54 147.472 218.416 146.436L217.582 139.409C217.467 138.442 218.044 137.522 218.993 137.303Z" fill="#00AFE1"/>
<path d="M201.378 154.715C203.705 157.394 206.732 160.868 207.064 161.2C208.03 162.165 209.698 160.477 209.463 159.132C209.144 157.308 207.323 156.058 208.092 154.52C208.65 153.404 210.502 153.33 212.17 153.557C213.393 153.725 214.662 153.2 215.214 152.094C215.581 151.359 215.571 150.493 215.187 149.767L212.545 144.776C211.677 143.138 210.133 141.879 208.29 141.688C208.208 141.68 208.14 141.675 208.092 141.675C207.792 141.675 204.926 143.677 202.399 145.492C200.804 146.638 199.871 148.487 199.871 150.451V150.679C199.871 152.162 200.405 153.595 201.378 154.715Z" fill="#00AFE1"/>
<path d="M118.69 222.856C89.4025 224.398 74.5021 213.609 37.5079 210.526C7.91333 208.06 0.17162 230.735 0 242.382C122.628 242.553 366.345 242.381 366.345 242.381C366.345 242.381 340.141 223.884 335.002 223.884C329.864 223.884 332.433 230.05 332.433 234.16C332.433 237.449 325.926 237.243 322.671 236.729C284.136 230.564 205.523 217.821 199.357 216.177C191.65 214.122 194.733 208.984 191.65 206.928C189.184 205.284 183.771 207.613 181.374 208.984C170.242 213.094 142.119 221.623 118.69 222.856Z" fill="#00AFE1"/>
<path d="M206.039 204.359C207.683 203.126 207.752 199.05 207.58 197.166C207.58 194.117 207.58 190.487 213.23 189.973C218.88 189.459 216.827 195.623 216.827 198.194C216.827 200.764 217.854 205.901 223.506 205.387C229.158 204.873 228.131 200.763 228.131 198.194C228.131 195.625 219.396 191 223.506 186.89C227.617 182.779 231.213 186.89 235.838 185.348C240.462 183.807 246.628 177.128 250.224 180.21C253.821 183.293 247.141 191 246.114 197.166C245.086 203.332 245.6 210.525 251.766 210.525C257.931 210.525 258.959 206.415 259.987 197.166C261.014 187.918 257.931 189.973 255.876 185.348C253.821 180.724 257.931 178.669 261.014 178.669C264.097 178.669 266.152 182.777 272.832 183.291C279.511 183.805 280.539 179.695 284.649 184.319C287.938 188.018 280.881 193.397 276.942 195.623C274.031 201.104 270.263 212.578 278.484 214.633C286.705 216.689 289.102 208.64 289.274 204.359C289.102 201.448 288.863 194.905 289.274 192.028C289.787 188.431 291.843 185.349 295.439 186.89C299.036 188.431 300.064 192.028 301.091 194.083C302.119 196.138 303.146 197.166 307.771 198.194C312.395 199.221 314.45 200.763 313.936 204.359C313.423 207.956 306.743 209.497 305.202 210.525C303.66 211.553 300.577 216.691 306.743 219.26C312.909 221.829 315.992 216.177 316.505 213.094C317.019 210.011 318.561 207.442 322.157 208.47C325.754 209.497 324.213 214.636 323.185 219.26C322.157 223.884 325.754 224.398 327.809 226.967C329.864 229.536 328.837 232.619 326.782 233.646C325.137 234.468 319.93 233.989 317.533 233.646L208.094 215.149C203.984 214.464 195.968 212.169 196.79 208.47C197.818 203.846 203.984 205.901 206.039 204.359Z" fill="#05D3D8"/>
<path fill-rule="evenodd" clip-rule="evenodd" d="M206.397 5.82129C205.072 4.44862 203.675 3.79114 202.095 3.96707C200.097 4.18957 197.239 5.34576 193.821 7.14732C190.451 8.92235 186.723 11.2212 183.034 13.5632C181.98 14.2317 180.928 14.9048 179.889 15.5693C177.313 17.2182 174.819 18.8145 172.589 20.1564C169.526 22.0005 166.714 23.5238 164.763 23.9739C161.077 24.8244 156.734 24.2146 151.954 23.4412C151.456 23.3605 150.95 23.2776 150.438 23.1934C145.937 22.4549 140.877 21.6247 135.081 21.4436C122.145 21.0393 115.231 22.5808 104.781 25.9924C93.752 29.5934 86.1524 34.1536 79.8484 40.2659C73.5118 46.4098 68.4171 54.1832 62.4732 64.3555C52.7081 81.0676 50.1514 101.276 51.6632 119.734C53.1768 138.214 58.7484 154.708 64.9827 163.935C71.241 173.197 85.2743 186.499 103.839 194.863C122.36 203.206 145.282 206.59 169.462 196.263C218.877 175.159 246.419 169.893 273.548 173.545C287.19 175.382 297.671 180.114 309.276 187.18C314.662 190.46 320.31 194.255 326.62 198.496C327.087 198.809 327.557 199.126 328.031 199.444C334.925 204.075 342.645 209.231 351.739 214.868C380.719 232.827 408.683 239.329 418.901 240.334C419.748 240.417 420.367 241.172 420.284 242.019C420.201 242.866 419.447 243.486 418.599 243.403C407.922 242.352 379.504 235.701 350.116 217.488C340.97 211.82 333.211 206.637 326.312 202.003C325.843 201.688 325.378 201.375 324.917 201.066C318.588 196.813 312.996 193.055 307.672 189.812C296.284 182.878 286.212 178.361 273.137 176.6C246.83 173.059 219.909 178.07 170.672 199.098C145.527 209.838 121.69 206.285 102.573 197.674C83.4999 189.082 69.0151 175.409 62.4282 165.66C55.8173 155.877 50.134 138.829 48.5907 119.986C47.0456 101.121 49.63 80.2247 59.8115 62.8002C65.7712 52.6007 71.042 44.5104 77.7024 38.0526C84.3955 31.5631 92.4243 26.7839 103.824 23.0619C114.53 19.5667 121.806 17.9444 135.178 18.3622C141.187 18.55 146.443 19.4131 150.935 20.1507C151.449 20.2352 151.953 20.3179 152.447 20.3979C157.353 21.1916 161.077 21.6606 164.07 20.97C165.459 20.6495 167.85 19.4115 170.999 17.5151C173.19 16.1963 175.628 14.6364 178.188 12.9977C179.235 12.328 180.302 11.6452 181.381 10.9604C185.078 8.61454 188.895 6.25753 192.383 4.41994C195.82 2.60887 199.127 1.19564 201.754 0.90316C204.582 0.588246 206.866 1.86898 208.615 3.67972C210.338 5.4645 211.66 7.87248 212.677 10.1793C213.695 12.4834 214.458 14.8078 215.019 16.5117L215.033 16.5551C215.215 17.1113 215.372 17.5833 215.506 17.9694C215.704 17.875 215.923 17.7676 216.164 17.6484C216.554 17.4548 217.005 17.2268 217.491 16.9811C218.253 16.5955 219.101 16.1664 219.938 15.7577C221.33 15.0779 222.816 14.3916 224.136 13.906C224.796 13.6635 225.449 13.4581 226.051 13.3317C226.62 13.2119 227.289 13.1298 227.917 13.2554C229.44 13.5598 230.942 14.6538 232.107 15.8316C233.28 17.0173 234.332 18.513 234.893 19.9794C235.94 19.6743 237.194 19.3711 238.387 19.2159C239.027 19.1328 239.685 19.0873 240.303 19.118C240.903 19.1478 241.577 19.2536 242.177 19.5539C243.203 20.0664 244.022 21.0197 244.62 21.8759C245.161 22.6521 245.621 23.4966 245.97 24.23C248.595 23.5393 252.327 22.7104 256.139 22.1756C260.093 21.6208 264.311 21.3551 267.481 21.9894C271.614 22.8166 275.864 24.6854 278.459 30.0909C280.973 35.3251 281.82 43.6631 280.011 57.1027C279.338 62.1058 278.275 66.9949 276.97 71.6591C280.205 78.1665 291.729 90.6839 313.91 90.2947C343.121 89.7823 360.28 88.7602 386.66 74.0478C413.501 59.079 451.115 45.1695 462.473 41.5554L462.851 41.435C468.626 39.5968 478.657 36.4046 489.546 33.9915C500.401 31.5855 512.291 29.9107 521.726 31.2212C522.57 31.3384 523.159 32.1169 523.042 32.9601C522.924 33.8033 522.146 34.392 521.303 34.2748C512.438 33.0436 500.998 34.6109 490.212 37.0013C479.467 39.3828 469.549 42.5385 463.775 44.3764L463.408 44.4931C452.159 48.0723 414.757 61.9083 388.161 76.7403C361.106 91.8288 343.326 92.862 313.963 93.3772C293.086 93.7434 280.837 83.2803 275.766 75.6912C272.978 84.4738 269.426 92.3128 266.154 98.4071C264.306 101.851 262.54 104.751 261.043 106.958C259.578 109.117 258.29 110.735 257.391 111.505C255.498 113.128 253.807 114.264 251.415 115.179C249.082 116.071 246.128 116.734 241.756 117.505C240.917 117.653 240.118 117.093 239.97 116.255C239.822 115.416 240.382 114.617 241.22 114.469C245.581 113.699 248.28 113.077 250.314 112.299C252.29 111.544 253.681 110.624 255.385 109.165C255.94 108.689 257.029 107.382 258.491 105.226C259.922 103.119 261.633 100.312 263.438 96.949C267.044 90.2321 270.999 81.3425 273.832 71.4258L276.964 56.6343C278.741 43.3912 277.789 35.8176 275.68 31.4251C273.651 27.1975 270.449 25.7273 266.876 25.0123C264.243 24.4855 260.459 24.6824 256.568 25.2285C252.719 25.7684 248.938 26.6235 246.396 27.3067C245.107 27.6533 243.829 26.966 243.316 25.8325C243.004 25.1442 242.577 24.3358 242.092 23.6404C241.579 22.9058 241.121 22.4724 240.798 22.3112C240.737 22.2807 240.544 22.2166 240.151 22.197C239.775 22.1784 239.313 22.2044 238.785 22.2731C237.729 22.4104 236.552 22.6993 235.553 22.999C233.921 23.4881 232.482 22.3493 232.033 21.1327C231.67 20.1496 230.885 18.9798 229.915 17.9993C228.916 16.9882 227.945 16.4047 227.313 16.2784L227.314 16.2786C227.314 16.2786 227.266 16.2713 227.155 16.2783C227.039 16.2856 226.883 16.3067 226.685 16.3485C226.284 16.4327 225.786 16.5846 225.201 16.7995C224.032 17.2291 222.661 17.8592 221.291 18.5279C220.456 18.9355 219.667 19.3347 218.932 19.7068C218.441 19.9552 217.975 20.1914 217.534 20.41C217.005 20.6727 216.517 20.9071 216.122 21.078C215.925 21.163 215.724 21.243 215.539 21.3044C215.4 21.3503 215.1 21.4456 214.769 21.4456C214.151 21.4456 213.749 21.1079 213.596 20.9596C213.42 20.7895 213.301 20.6073 213.23 20.4878C213.082 20.2404 212.956 19.9463 212.85 19.6774C212.634 19.1296 212.385 18.3726 212.113 17.5433L212.105 17.5181L212.104 17.5169C211.539 15.7959 210.813 13.5894 209.857 11.4237C208.894 9.24058 207.748 7.21994 206.397 5.82129ZM214.527 18.3904C214.527 18.3904 214.534 18.3882 214.546 18.3853C214.532 18.3894 214.527 18.3904 214.527 18.3904Z" fill="#00AFE1"/>
<path d="M284.13 159.049L278.778 147.714L269.75 156.411L274.537 157.288L271.851 171.926L276.659 172.809L279.344 158.171L284.13 159.049Z" fill="#FF0000"/>
<path d="M333.212 186.112L336.132 173.922L323.648 175.054L326.832 178.735L315.575 188.469L318.772 192.166L330.029 182.431L333.212 186.112Z" fill="#FF0000"/>
<path d="M228.629 157.083L217.658 151.02L215.421 163.353L219.817 161.266L226.2 174.71L230.614 172.614L224.233 159.17L228.629 157.083Z" fill="#FF0000"/>
<path d="M178.635 187.567L167.988 194.183L177.661 202.156L177.985 197.3L192.834 198.291L193.16 193.415L178.311 192.424L178.635 187.567Z" fill="#FF0000"/>
<path d="M348.836 224.919L359.406 218.182L349.643 210.321L349.375 215.179L334.515 214.358L334.245 219.238L349.104 220.059L348.836 224.919Z" fill="#FF0000"/>
</svg>
