<svg width="59" height="60" viewBox="0 0 59 60" fill="none" xmlns="http://www.w3.org/2000/svg">
<mask id="mask0_22_129" style="mask-type:alpha" maskUnits="userSpaceOnUse" x="0" y="0" width="59" height="60">
<circle cx="29.5" cy="30.022" r="29.5" fill="#E2F3FB"/>
</mask>
<g mask="url(#mask0_22_129)">
<path d="M-4.13633 25.6013C-13.9376 25.6013 -21.8832 33.5659 -21.8832 43.3907V55.3095C-21.8832 60.2219 -17.9104 64.2042 -13.0098 64.2042L57.2678 64.2042C62.1684 64.2042 66.1412 60.2219 66.1412 55.3095V41.4211C66.1412 38.6286 64.8532 35.9483 62.3827 34.6579C60.0294 33.4287 56.9575 32.2459 54.3395 32.6281C50.618 33.1713 47.8865 33.8621 45.4028 34.4901C41.7869 35.4045 38.6965 36.186 33.8419 36.1859C30.0204 36.1859 25.3946 35.2807 21.2137 34.1922C19.3393 33.7042 17.7583 32.5053 16.3778 31.1438C12.9024 27.7161 8.13444 25.6013 2.87368 25.6013H-4.13633Z" fill="#009AE2"/>
<path d="M27.8394 20.6841C27.8394 20.4126 28.0595 20.1924 28.3311 20.1924H31.6631C31.9347 20.1924 32.1549 20.4125 32.1549 20.6841V28.5183C32.1549 28.7899 31.9347 29.0101 31.6631 29.0101H28.3311C28.0595 29.0101 27.8394 28.7899 27.8394 28.5183V20.6841Z" fill="#009AE2"/>
<path d="M30.3657 32.5606C30.17 32.7823 29.8243 32.7823 29.6285 32.5606L26.0471 28.5047C25.7667 28.1872 25.9922 27.6874 26.4157 27.6874H33.5786C34.0021 27.6874 34.2275 28.1872 33.9472 28.5047L30.3657 32.5606Z" fill="#009AE2"/>
<path d="M41.6747 18.9629C41.6747 18.6914 41.8949 18.4712 42.1664 18.4712H45.612C45.8836 18.4712 46.1038 18.6914 46.1038 18.9629V26.7971C46.1038 27.0687 45.8836 27.2889 45.612 27.2889H42.1664C41.8949 27.2889 41.6747 27.0687 41.6747 26.7971V18.9629Z" fill="#009AE2"/>
<path d="M44.2536 30.8548C44.0584 31.0702 43.72 31.0702 43.5248 30.8548L39.8395 26.7882C39.5531 26.4721 39.7774 25.9662 40.2039 25.9662H47.5745C48.0011 25.9662 48.2254 26.4721 47.9389 26.7882L44.2536 30.8548Z" fill="#009AE2"/>
<path d="M12.907 15.0289C12.907 14.7573 13.1272 14.5371 13.3987 14.5371H16.8443C17.1159 14.5371 17.3361 14.7573 17.3361 15.0289V22.8631C17.3361 23.1346 17.1159 23.3548 16.8443 23.3548H13.3987C13.1272 23.3548 12.907 23.1346 12.907 22.8631V15.0289Z" fill="#009AE2"/>
<path d="M15.4859 26.9207C15.2907 27.1361 14.9523 27.1361 14.7571 26.9207L11.0718 22.8541C10.7854 22.5381 11.0097 22.0322 11.4362 22.0322H18.8068C19.2334 22.0322 19.4577 22.5381 19.1712 22.8541L15.4859 26.9207Z" fill="#009AE2"/>
</g>
</svg>
