<svg width="59" height="60" viewBox="0 0 59 60" fill="none" xmlns="http://www.w3.org/2000/svg">
<mask id="mask0_22_240" style="mask-type:alpha" maskUnits="userSpaceOnUse" x="0" y="0" width="59" height="60">
<circle cx="29.5" cy="30.3828" r="29.5" fill="#E2F3FB"/>
</mask>
<g mask="url(#mask0_22_240)">
<circle cx="42" cy="44.8828" r="26" fill="#009AE2"/>
<path d="M14.7451 31.488L7.69364 28.4207C7.46467 28.3211 7.52553 28.0153 7.78246 27.9744L11.3383 27.4087C11.4848 27.3854 11.5869 27.2622 11.5664 27.1335L11.124 24.3523C11.0925 24.1543 11.3386 24.0046 11.5314 24.1046L18.1951 27.5591C18.4068 27.6689 18.3374 27.9583 18.0899 27.9976L14.9724 28.4936C14.826 28.5169 14.7238 28.6401 14.7443 28.7688L15.1363 31.2325C15.1665 31.4229 14.9383 31.572 14.7451 31.488Z" fill="#009AE2"/>
<path d="M24.4585 15.7347L28.3766 9.11807C28.5038 8.90322 28.7998 9.00154 28.8085 9.26155L28.9288 12.8601C28.9338 13.0083 29.0434 13.125 29.1736 13.1206L31.9882 13.0265C32.1886 13.0198 32.3066 13.2826 32.1835 13.4615L27.9292 19.6453C27.794 19.8417 27.5155 19.737 27.5071 19.4865L27.4016 16.3316C27.3966 16.1834 27.287 16.0668 27.1568 16.0711L24.6635 16.1545C24.4709 16.161 24.3512 15.916 24.4585 15.7347Z" fill="#009AE2"/>
<path d="M13.7574 21.4062L12.3599 11.2146C12.3145 10.8837 12.7064 10.7406 12.9317 11.0058L16.0507 14.6763C16.1791 14.8275 16.391 14.8585 16.5238 14.7457L19.3947 12.3062C19.5991 12.1325 19.9413 12.3098 19.9611 12.5997L20.6463 22.6172C20.6681 22.9355 20.2891 23.0573 20.072 22.8019L17.3376 19.5839C17.2091 19.4327 16.9973 19.4017 16.8644 19.5145L14.3213 21.6755C14.1248 21.8425 13.7957 21.6853 13.7574 21.4062Z" fill="#009AE2"/>
</g>
</svg>
