<svg width="59" height="60" viewBox="0 0 59 60" fill="none" xmlns="http://www.w3.org/2000/svg">
<circle cx="29.5" cy="30.3828" r="29.5" fill="#E2F3FB"/>
<path fill-rule="evenodd" clip-rule="evenodd" d="M29.5 48.8828C39.7173 48.8828 48 40.6001 48 30.3828C48 20.1655 39.7173 11.8828 29.5 11.8828C19.2827 11.8828 11 20.1655 11 30.3828C11 40.6001 19.2827 48.8828 29.5 48.8828ZM30.7361 21.024C30.7361 20.2932 30.1437 19.7008 29.4129 19.7008C28.6822 19.7008 28.0898 20.2932 28.0898 21.024V30.8323L34.2094 37.1373C34.7183 37.6617 35.556 37.6742 36.0804 37.1652C36.6047 36.6563 36.6172 35.8186 36.1083 35.2942L30.7361 29.7592V21.024Z" fill="#009AE2"/>
</svg>
