<svg width="59" height="59" viewBox="0 0 59 59" fill="none" xmlns="http://www.w3.org/2000/svg">
<circle cx="29.5" cy="29.5" r="29.5" fill="#E2F3FB"/>
<path fill-rule="evenodd" clip-rule="evenodd" d="M18.0858 38.3256C29.5582 38.3256 38.8584 29.0254 38.8584 17.553C38.8584 15.826 38.6476 14.1482 38.2504 12.5439C37.9176 11.1995 39.3215 9.97568 40.3924 10.8541C45.0368 14.6637 47.9999 20.4473 47.9999 26.9229C47.9999 38.3953 38.6997 47.6955 27.2273 47.6955C20.567 47.6955 14.6388 44.561 10.8375 39.6867C9.98573 38.5945 11.2437 37.2216 12.5795 37.5879C14.3331 38.0688 16.1795 38.3256 18.0858 38.3256Z" fill="#009AE2"/>
<path d="M21.2158 18.6596C21.4848 18.6596 21.7028 18.8776 21.7028 19.1466V19.2746C21.7028 19.5435 21.4848 19.7616 21.2158 19.7616H15.372C15.103 19.7616 14.885 19.5435 14.885 19.2746V19.1013C14.885 18.9636 14.9433 18.8323 15.0455 18.74L18.224 15.868C18.5548 15.5691 18.3433 15.0197 17.8975 15.0197H15.4611C15.1922 15.0197 14.9741 14.8017 14.9741 14.5327V14.4047C14.9741 14.1358 15.1922 13.9177 15.4611 13.9177H21.0487C21.3177 13.9177 21.5357 14.1358 21.5357 14.4047V14.5784C21.5357 14.7159 21.4776 14.847 21.3757 14.9393L18.205 17.8117C17.8748 18.1108 18.0864 18.6596 18.5319 18.6596H21.2158Z" fill="#009AE2"/>
<path d="M31.0252 21.765C31.2557 21.765 31.4426 21.9467 31.4426 22.1708V22.2775C31.4426 22.5016 31.2557 22.6833 31.0252 22.6833H26.0162C25.7856 22.6833 25.5988 22.5016 25.5988 22.2775V22.1331C25.5988 22.0184 25.6487 21.909 25.7363 21.832L28.4607 19.4387C28.7443 19.1896 28.563 18.7318 28.1809 18.7318H26.0926C25.862 18.7318 25.6751 18.5501 25.6751 18.326V18.2193C25.6751 17.9952 25.862 17.8135 26.0926 17.8135H30.8819C31.1125 17.8135 31.2994 17.9952 31.2994 18.2193V18.364C31.2994 18.4786 31.2495 18.5878 31.1622 18.6648L28.4444 21.0584C28.1614 21.3077 28.3428 21.765 28.7247 21.765H31.0252Z" fill="#009AE2"/>
<path d="M23.3725 27.7926C23.5262 27.7926 23.6508 27.9379 23.6508 28.1172V28.2026C23.6508 28.3819 23.5262 28.5272 23.3725 28.5272H20.0332C19.8795 28.5272 19.7549 28.3819 19.7549 28.2026V28.0871C19.7549 27.9952 19.7882 27.9077 19.8466 27.8462L21.6629 25.9315C21.8519 25.7323 21.7311 25.366 21.4763 25.366H20.0841C19.9304 25.366 19.8058 25.2206 19.8058 25.0413V24.956C19.8058 24.7767 19.9304 24.6313 20.0841 24.6313H23.277C23.4307 24.6313 23.5553 24.7767 23.5553 24.956V25.0718C23.5553 25.1634 23.5221 25.2508 23.4638 25.3124L21.652 27.2273C21.4633 27.4267 21.5842 27.7926 21.8388 27.7926H23.3725Z" fill="#009AE2"/>
</svg>
