<svg width="59" height="59" viewBox="0 0 59 59" fill="none" xmlns="http://www.w3.org/2000/svg">
<circle cx="29.5" cy="29.5" r="29.5" fill="#E2F3FB"/>
<path fill-rule="evenodd" clip-rule="evenodd" d="M31.6153 9.81324C31.6153 10.4273 31.3592 10.9815 30.948 11.375L31.0424 12.327C31.1896 13.8108 33.1992 14.1643 33.8462 12.8202L34.2337 12.0152C33.9479 11.4913 33.8791 10.8522 34.0974 10.2466C34.5021 9.12358 35.7405 8.54127 36.8635 8.94596C37.9865 9.35065 38.5688 10.5891 38.1641 11.7121C37.9664 12.2608 37.5697 12.6804 37.0846 12.9189L36.8319 13.9042C36.4615 15.3487 38.2286 16.3664 39.2976 15.3241L40.1022 14.5395C40.104 14.0447 40.2749 13.548 40.622 13.1427C41.3985 12.2361 42.7629 12.1305 43.6695 12.907C44.5762 13.6835 44.6817 15.048 43.9052 15.9546C43.4581 16.4766 42.8161 16.733 42.1789 16.7084L41.7315 17.3614C40.8881 18.5924 42.1997 20.1517 43.5616 19.5369L44.6264 19.0563C44.8043 18.6181 45.1265 18.235 45.571 17.9856C46.6121 17.4016 47.9295 17.7721 48.5135 18.8131C49.0976 19.8542 48.7271 21.1716 47.686 21.7557C47.0697 22.1014 46.3566 22.1126 45.7561 21.8483L45.1502 22.2817C43.9356 23.1508 44.6335 25.0635 46.124 24.9504L47.0082 24.8834C47.3208 24.3864 47.8335 24.0178 48.457 23.9062C49.632 23.6957 50.7551 24.4776 50.9656 25.6526C51.176 26.8276 50.3941 27.9507 49.2191 28.1612C48.6338 28.266 48.0614 28.1246 47.6082 27.8111L46.6757 28.0717C45.2364 28.4739 45.2363 30.5094 46.6757 30.9117L47.6372 31.1804C48.0857 30.8806 48.6463 30.7472 49.2192 30.8498C50.3942 31.0603 51.1761 32.1834 50.9657 33.3584C50.7552 34.5334 49.6321 35.3153 48.4571 35.1049C47.8216 34.9911 47.3011 34.6103 46.9903 34.0986L46.124 34.0329C44.6335 33.9198 43.9356 35.8326 45.1502 36.7016L45.8805 37.2241C46.4402 37.0418 47.0719 37.0874 47.6232 37.4026C48.6595 37.9949 49.0194 39.3153 48.4271 40.3516C47.8347 41.3879 46.5144 41.7479 45.478 41.1555C44.9624 40.8608 44.6142 40.3858 44.4675 39.8553L43.5616 39.4464C42.1997 38.8316 40.8881 40.3909 41.7315 41.6219L42.213 42.3248C42.8312 42.3185 43.4477 42.5761 43.8804 43.0831C44.6552 43.9912 44.5472 45.3554 43.6392 46.1303C42.7311 46.9051 41.3669 46.7971 40.5921 45.889C40.2286 45.4631 40.0594 44.9369 40.0759 44.4182L39.2976 43.6592C38.2287 42.6169 36.4615 43.6346 36.8319 45.0792L37.0588 45.9637C37.6156 46.1802 38.0806 46.6252 38.3038 47.2297C38.7174 48.3495 38.1449 49.5925 37.0251 50.0061C35.9054 50.4196 34.6624 49.8471 34.2488 48.7274C34.0462 48.1787 34.0803 47.6004 34.2995 47.1047L33.8462 46.1632C33.1992 44.8191 31.1896 45.1725 31.0424 46.6563L30.9455 47.6339C31.3581 48.0275 31.6152 48.5828 31.6152 49.1981C31.6152 50.3918 30.6475 51.3595 29.4538 51.3595C28.2601 51.3595 27.2925 50.3918 27.2925 49.1981C27.2925 48.5828 27.5495 48.0276 27.9621 47.634L27.8651 46.6564C27.7179 45.1725 25.7084 44.8191 25.0613 46.1632L24.667 46.9822C24.9593 47.5087 25.0313 48.1539 24.8111 48.7649C24.4064 49.8879 23.168 50.4702 22.045 50.0655C20.922 49.6608 20.3397 48.4224 20.7444 47.2994C20.9408 46.7542 21.3337 46.3365 21.8146 46.0972L22.0756 45.0792C22.4461 43.6346 20.6789 42.6169 19.61 43.6592L18.8056 44.4436C18.8102 44.9477 18.6395 45.4556 18.2858 45.8686C17.5094 46.7752 16.1449 46.8807 15.2383 46.1043C14.3317 45.3278 14.2261 43.9633 15.0026 43.0567C15.4453 42.5399 16.079 42.2834 16.71 42.3022L17.1761 41.622C18.0195 40.3909 16.7078 38.8316 15.346 39.4464L14.2949 39.9209C14.1201 40.3733 13.7927 40.7698 13.3367 41.0256C12.2957 41.6097 10.9783 41.2392 10.3942 40.1981C9.81017 39.1571 10.1807 37.8397 11.2217 37.2556C11.8297 36.9145 12.5319 36.899 13.1273 37.1524L13.7574 36.7016C14.972 35.8326 14.2741 33.9198 12.7836 34.0329L11.918 34.0986C11.6073 34.6105 11.0866 34.9916 10.4509 35.1054C9.27587 35.3159 8.15273 34.534 7.94226 33.359C7.73179 32.184 8.51369 31.0609 9.68869 30.8504C10.2614 30.7478 10.8217 30.881 11.2701 31.1805L12.2319 30.9117C13.6712 30.5094 13.6712 28.4739 12.2319 28.0717L11.2996 27.8111C10.8464 28.1247 10.274 28.2662 9.68866 28.1613C8.51366 27.9509 7.73174 26.8278 7.94218 25.6528C8.15263 24.4778 9.27575 23.6958 10.4508 23.9063C11.0741 24.0179 11.5869 24.3865 11.8995 24.8834L12.7836 24.9504C14.2741 25.0635 14.972 23.1508 13.7574 22.2817L13.056 21.7799C12.4893 21.9733 11.8454 21.9315 11.2847 21.611C10.2484 21.0187 9.88846 19.6983 10.4808 18.662C11.0732 17.6256 12.3935 17.2657 13.4299 17.8581C13.9343 18.1464 14.2784 18.6072 14.4306 19.1237L15.346 19.5369C16.7078 20.1517 18.0195 18.5924 17.1761 17.3614L16.7141 16.6871C16.0895 16.699 15.4647 16.4414 15.0275 15.9291C14.2527 15.021 14.3607 13.6568 15.2687 12.8819C16.1768 12.1071 17.541 12.2151 18.3158 13.1232C18.6727 13.5414 18.8423 14.0565 18.8327 14.5662L19.61 15.3241C20.6789 16.3664 22.4461 15.3487 22.0756 13.9042L21.8568 13.0507C21.2965 12.8354 20.8282 12.389 20.6039 11.7817C20.1903 10.6619 20.7628 9.41893 21.8826 9.00537C23.0024 8.59181 24.2454 9.16431 24.6589 10.2841C24.8596 10.8274 24.8281 11.3997 24.6146 11.8922L25.0613 12.8202C25.7084 14.1643 27.7179 13.8108 27.8651 12.327L27.9596 11.3748C27.5485 10.9814 27.2925 10.4272 27.2925 9.81324C27.2925 8.61954 28.2602 7.65186 29.4539 7.65186C30.6476 7.65186 31.6153 8.61954 31.6153 9.81324ZM37.2458 20.1966C37.9513 20.4494 38.3183 21.2262 38.0656 21.9317C37.8128 22.6371 37.036 23.0041 36.3305 22.7514C35.625 22.4986 35.258 21.7218 35.5108 21.0164C35.7635 20.3109 36.5403 19.9439 37.2458 20.1966ZM41.6981 25.876C42.0351 24.9353 41.5457 23.8996 40.6051 23.5626C39.6644 23.2256 38.6287 23.7149 38.2917 24.6556C37.9547 25.5962 38.444 26.632 39.3847 26.969C40.3253 27.306 41.361 26.8166 41.6981 25.876ZM21.1724 38.7019C22.6715 38.7019 23.8867 37.4867 23.8867 35.9876C23.8867 34.4885 22.6715 33.2733 21.1724 33.2733C19.6733 33.2733 18.4581 34.4885 18.4581 35.9876C18.4581 37.4867 19.6733 38.7019 21.1724 38.7019Z" fill="#009AE2"/>
</svg>
