<svg width="59" height="60" viewBox="0 0 59 60" fill="none" xmlns="http://www.w3.org/2000/svg">
<circle cx="29.5" cy="30.022" r="29.5" fill="#E2F3FB"/>
<mask id="mask0_22_156" style="mask-type:alpha" maskUnits="userSpaceOnUse" x="0" y="0" width="59" height="60">
<circle cx="29.5" cy="30.022" r="29.5" fill="#E2F3FB"/>
</mask>
<g mask="url(#mask0_22_156)">
<path d="M-11.7769 48.8724C-10.8079 47.8206 -11.2722 45.0139 -11.6258 43.7424C-12.0083 41.6496 -12.4638 39.1576 -8.66691 38.0992C-4.87006 37.0408 -5.50004 41.528 -5.1775 43.2928C-4.85508 45.0569 -3.50831 48.4546 0.289939 47.3959C4.08819 46.3373 2.87021 43.6442 2.54792 41.8808C2.22563 40.1174 -4.32412 38.0344 -2.03054 34.6996C0.263042 31.3647 3.23678 33.7369 6.20381 32.1012C9.17083 30.4656 12.5468 25.1106 15.3916 26.7774C18.2364 28.4442 14.6383 34.5687 14.7094 38.9292C14.7806 43.2896 16.0342 48.1629 20.2481 47.3928C24.4619 46.6226 24.6486 43.6728 24.1907 37.1963C23.7327 30.7198 21.8836 32.5156 19.8989 29.5982C17.9141 26.6809 20.4655 24.7567 22.5725 24.3716C24.6794 23.9865 26.5994 26.5498 31.2289 26.0682C35.8584 25.5865 36.0451 22.6367 39.4344 25.2974C42.1459 27.4259 37.9979 31.9991 35.5852 34.0189C34.2831 38.1449 33.1472 46.4916 39.0236 46.8754C44.8999 47.2592 45.5287 41.4354 45.1089 38.4755C44.6264 36.4987 43.642 32.0376 43.562 30.0113C43.4619 27.4784 44.4798 25.1056 47.1312 25.7144C49.7827 26.3232 50.9362 28.6635 51.8964 29.9459C52.8565 31.2282 53.6877 31.8052 56.977 31.9329C60.2663 32.0607 61.8643 32.862 61.9644 35.3949C62.0644 37.9278 57.6928 39.8202 56.7683 40.718C55.8437 41.6159 54.3813 45.5278 58.9175 46.521C63.4536 47.5142 64.8516 43.2497 64.816 41.0695C64.7804 38.8892 65.5115 36.9333 68.0986 37.1894C70.6856 37.4455 70.2767 41.1648 70.1545 44.4673C70.0323 47.7697 72.886 48.5436 74.1317 50.6491C77.5898 56.4938 72.575 58.9605 67.436 59.1579C67.436 59.1579 -6.784 60.0887 -9.67923 60.1316C-12.5745 60.1746 -20.552 61.4342 -16.2199 52.5878C-15.0114 50.1198 -12.9881 50.1871 -11.7769 48.8724Z" fill="#009AE2"/>
</g>
</svg>
